# xmcd
#
# Track frame offsets: 
#        150
#        5297
#        21782
#        36935
#        49155
#        66285
#        80925
#        82737
#        101562
#        125497
#        144972
#        159195
#
# Disc length: 2499 seconds
#
# Revision: 0
# Processed by: cddbd v1.5.2PL0 Copyright (c) Steve Scherf et al.
# Submitted via: ExactAudioCopy v1.0b3
#
DISCID=9009c10c
DTITLE=Various Artist - Looking For Mr. Goodbar
DYEAR=1976
DGENRE=Disco
TTITLE0=Carol Connors and Artie Kane - Theme From "Looking For Mr. Goodb
TTITLE0=ar" (Don't Ask To Stay Until Tomorrow)
TTITLE1=Thelma Houston - Don't Leave Me This Way
TTITLE2=Boz Scaggs - Lowdown
TTITLE3=Commodores - Machine Gun
TTITLE4=Diana Ross - Love Hangover
TTITLE5=Bill Withers - She Wants To (Get On Down)
TTITLE6=Carol Connors and Artie Kane - Theme From "Looking For Mr. Goodb
TTITLE6=ar" (Don't Ask To Stay Until Tomorrow) [Reprise]
TTITLE7=Carol Connors and Artie Kane - Theme From "Looking For Mr. Goodb
TTITLE7=ar" (Don't Ask To Stay Until Tomorrow) [Vocal]
TTITLE8=Bill Withers - She's Lonely
TTITLE9=Donna Summer - Try Me I Know We Can Make It
TTITLE10=The O'Jays - Back Stabbers
TTITLE11=Donna Summer - Prelude To Love - Could It Be Magic
EXTD=
EXTT0=
EXTT1=
EXTT2=
EXTT3=
EXTT4=
EXTT5=
EXTT6=
EXTT7=
EXTT8=
EXTT9=
EXTT10=
EXTT11=
PLAYORDER=
